<svg aria-hidden="true" style="position: absolute; width: 0; height: 0; overflow: hidden;" version="1.1" xmlns="http://www.w3.org/2000/svg" xmlns:xlink="http://www.w3.org/1999/xlink">
<defs>
<symbol id="instagram" viewBox="0 0 32 32">
<path d="M16 2.881c4.275 0 4.781 0.019 6.462 0.094 1.563 0.069 2.406 0.331 2.969 0.55 0.744 0.288 1.281 0.638 1.837 1.194 0.563 0.563 0.906 1.094 1.2 1.838 0.219 0.563 0.481 1.412 0.55 2.969 0.075 1.688 0.094 2.194 0.094 6.463s-0.019 4.781-0.094 6.463c-0.069 1.563-0.331 2.406-0.55 2.969-0.288 0.744-0.637 1.281-1.194 1.837-0.563 0.563-1.094 0.906-1.837 1.2-0.563 0.219-1.413 0.481-2.969 0.55-1.688 0.075-2.194 0.094-6.463 0.094s-4.781-0.019-6.463-0.094c-1.563-0.069-2.406-0.331-2.969-0.55-0.744-0.288-1.281-0.637-1.838-1.194-0.563-0.563-0.906-1.094-1.2-1.837-0.219-0.563-0.481-1.413-0.55-2.969-0.075-1.688-0.094-2.194-0.094-6.463s0.019-4.781 0.094-6.463c0.069-1.563 0.331-2.406 0.55-2.969 0.288-0.744 0.638-1.281 1.194-1.838 0.563-0.563 1.094-0.906 1.838-1.2 0.563-0.219 1.412-0.481 2.969-0.55 1.681-0.075 2.188-0.094 6.463-0.094zM16 0c-4.344 0-4.887 0.019-6.594 0.094-1.7 0.075-2.869 0.35-3.881 0.744-1.056 0.412-1.95 0.956-2.837 1.85-0.894 0.888-1.438 1.781-1.85 2.831-0.394 1.019-0.669 2.181-0.744 3.881-0.075 1.713-0.094 2.256-0.094 6.6s0.019 4.887 0.094 6.594c0.075 1.7 0.35 2.869 0.744 3.881 0.413 1.056 0.956 1.95 1.85 2.837 0.887 0.887 1.781 1.438 2.831 1.844 1.019 0.394 2.181 0.669 3.881 0.744 1.706 0.075 2.25 0.094 6.594 0.094s4.888-0.019 6.594-0.094c1.7-0.075 2.869-0.35 3.881-0.744 1.050-0.406 1.944-0.956 2.831-1.844s1.438-1.781 1.844-2.831c0.394-1.019 0.669-2.181 0.744-3.881 0.075-1.706 0.094-2.25 0.094-6.594s-0.019-4.887-0.094-6.594c-0.075-1.7-0.35-2.869-0.744-3.881-0.394-1.063-0.938-1.956-1.831-2.844-0.887-0.887-1.781-1.438-2.831-1.844-1.019-0.394-2.181-0.669-3.881-0.744-1.712-0.081-2.256-0.1-6.6-0.1v0z"></path>
<path d="M16 7.781c-4.537 0-8.219 3.681-8.219 8.219s3.681 8.219 8.219 8.219 8.219-3.681 8.219-8.219c0-4.537-3.681-8.219-8.219-8.219zM16 21.331c-2.944 0-5.331-2.387-5.331-5.331s2.387-5.331 5.331-5.331c2.944 0 5.331 2.387 5.331 5.331s-2.387 5.331-5.331 5.331z"></path>
<path d="M26.462 7.456c0 1.060-0.859 1.919-1.919 1.919s-1.919-0.859-1.919-1.919c0-1.060 0.859-1.919 1.919-1.919s1.919 0.859 1.919 1.919z"></path>
</symbol>
<symbol id="linkedin" viewBox="0 0 32 32">
<path d="M12 12h5.535v2.837h0.079c0.77-1.381 2.655-2.837 5.464-2.837 5.842 0 6.922 3.637 6.922 8.367v9.633h-5.769v-8.54c0-2.037-0.042-4.657-3.001-4.657-3.005 0-3.463 2.218-3.463 4.509v8.688h-5.767v-18z"></path>
<path d="M2 12h6v18h-6v-18z"></path>
<path d="M8 7c0 1.657-1.343 3-3 3s-3-1.343-3-3c0-1.657 1.343-3 3-3s3 1.343 3 3z"></path>
</symbol>
<symbol id="github" viewBox="0 0 32 32">
<path d="M11.617 24.056c-1.691 0.507-2.747 0.447-3.444 0.227-0.308-0.097-0.575-0.235-0.819-0.403-0.548-0.379-0.969-0.9-1.492-1.563-0.475-0.601-1.133-1.476-2.068-1.968-0.247-0.131-0.515-0.236-0.805-0.309-0.715-0.179-1.439 0.256-1.617 0.971s0.256 1.439 0.971 1.617c0.099 0.031 0.207 0.080 0.207 0.080 0.336 0.177 0.649 0.539 1.219 1.261 0.488 0.619 1.141 1.464 2.071 2.105 0.443 0.305 0.948 0.568 1.532 0.752 1.353 0.428 2.981 0.395 5.013-0.216 0.705-0.212 1.105-0.955 0.893-1.66s-0.955-1.105-1.66-0.893zM22.667 29.333v-5.056c0.069-0.912-0.075-1.791-0.389-2.589 1.036-0.228 2.084-0.569 3.063-1.097 2.777-1.499 4.661-4.323 4.661-9.231 0-2.004-0.688-3.849-1.839-5.308 0.473-1.793 0.301-3.635-0.391-5.244-0.163-0.377-0.479-0.643-0.845-0.752-0.476-0.141-2.309-0.412-5.831 1.816-3.031-0.721-6.076-0.679-8.861-0.003-3.519-2.225-5.351-1.955-5.827-1.813-0.395 0.117-0.695 0.4-0.847 0.753-0.739 1.723-0.832 3.563-0.389 5.243-1.24 1.571-1.849 3.468-1.839 5.356 0 4.829 1.852 7.631 4.588 9.145 1.003 0.555 2.080 0.913 3.143 1.156-0.247 0.624-0.381 1.281-0.405 1.941-0.007 0.188-0.004 0.377 0.007 0.565l0.001 5.117c0 0.736 0.597 1.333 1.333 1.333s1.333-0.597 1.333-1.333v-5.16c0-0.028-0.001-0.060-0.003-0.092-0.008-0.112-0.009-0.224-0.005-0.336 0.027-0.757 0.321-1.501 0.887-2.085 0.193-0.199 0.328-0.463 0.365-0.763 0.091-0.731-0.428-1.397-1.159-1.488-0.453-0.056-0.903-0.125-1.341-0.212-1.053-0.208-2.024-0.513-2.863-0.977-1.74-0.964-3.188-2.761-3.213-6.723 0.017-1.655 0.559-3.092 1.632-4.22 0.343-0.364 0.467-0.895 0.283-1.387-0.373-0.997-0.455-2.107-0.187-3.189 0.655 0.143 1.805 0.555 3.529 1.709 0.313 0.209 0.711 0.285 1.1 0.177 2.663-0.743 5.656-0.803 8.627 0.003 0.361 0.097 0.759 0.044 1.091-0.18 1.724-1.155 2.875-1.567 3.529-1.709 0.252 1.021 0.209 2.127-0.188 3.189-0.172 0.469-0.077 1.007 0.284 1.387 1.011 1.060 1.632 2.496 1.632 4.080 0 4.1-1.485 5.927-3.26 6.884-0.831 0.448-1.791 0.74-2.831 0.933-0.429 0.080-0.868 0.141-1.311 0.191-0.28 0.031-0.557 0.152-0.779 0.367-0.529 0.512-0.544 1.356-0.032 1.885 0.089 0.093 0.173 0.191 0.251 0.293 0.453 0.599 0.695 1.353 0.632 2.156 0 0.032-0.001 0.068-0.004 0.104v5.163c0 0.736 0.597 1.333 1.333 1.333s1.333-0.597 1.333-1.333z"></path>
</symbol>
<symbol id="email" viewBox="0 0 32 32">
<path d="M4 10.561l11.236 7.865c0.453 0.313 1.060 0.328 1.529 0l11.235-7.865v13.439c0 0.363-0.147 0.695-0.393 0.94s-0.577 0.393-0.94 0.393h-21.333c-0.363 0-0.695-0.147-0.94-0.393s-0.393-0.577-0.393-0.94zM1.333 7.977c0 0.013 0 0.027 0 0.040v15.983c0 1.104 0.453 2.105 1.173 2.827s1.723 1.173 2.827 1.173h21.333c1.104 0 2.105-0.453 2.827-1.173s1.173-1.723 1.173-2.827v-15.984c0-0.013 0-0.027 0-0.040-0.007-1.095-0.457-2.087-1.173-2.803-0.721-0.72-1.723-1.173-2.827-1.173h-21.333c-1.104 0-2.105 0.453-2.827 1.173-0.716 0.716-1.167 1.708-1.173 2.804zM27.859 7.405l-11.859 8.3-11.859-8.3c0.064-0.128 0.149-0.244 0.251-0.345 0.247-0.247 0.579-0.393 0.941-0.393h21.333c0.363 0 0.695 0.147 0.94 0.393 0.101 0.101 0.187 0.219 0.251 0.345z"></path>
</symbol>
<symbol id="whatsapp" viewBox="0 0 32 32">
<path d="M27.281 4.65c-2.994-3-6.975-4.65-11.219-4.65-8.738 0-15.85 7.112-15.85 15.856 0 2.794 0.731 5.525 2.119 7.925l-2.25 8.219 8.406-2.206c2.319 1.262 4.925 1.931 7.575 1.931h0.006c0 0 0 0 0 0 8.738 0 15.856-7.113 15.856-15.856 0-4.238-1.65-8.219-4.644-11.219zM16.069 29.050v0c-2.369 0-4.688-0.637-6.713-1.837l-0.481-0.288-4.987 1.306 1.331-4.863-0.313-0.5c-1.325-2.094-2.019-4.519-2.019-7.012 0-7.269 5.912-13.181 13.188-13.181 3.519 0 6.831 1.375 9.319 3.862 2.488 2.494 3.856 5.8 3.856 9.325-0.006 7.275-5.919 13.188-13.181 13.188zM23.294 19.175c-0.394-0.2-2.344-1.156-2.706-1.288s-0.625-0.2-0.894 0.2c-0.262 0.394-1.025 1.288-1.256 1.556-0.231 0.262-0.462 0.3-0.856 0.1s-1.675-0.619-3.188-1.969c-1.175-1.050-1.975-2.35-2.206-2.744s-0.025-0.613 0.175-0.806c0.181-0.175 0.394-0.463 0.594-0.694s0.262-0.394 0.394-0.662c0.131-0.262 0.069-0.494-0.031-0.694s-0.894-2.15-1.219-2.944c-0.319-0.775-0.65-0.669-0.894-0.681-0.231-0.012-0.494-0.012-0.756-0.012s-0.694 0.1-1.056 0.494c-0.363 0.394-1.387 1.356-1.387 3.306s1.419 3.831 1.619 4.1c0.2 0.262 2.794 4.269 6.769 5.981 0.944 0.406 1.681 0.65 2.256 0.837 0.95 0.3 1.813 0.256 2.494 0.156 0.762-0.113 2.344-0.956 2.675-1.881s0.331-1.719 0.231-1.881c-0.094-0.175-0.356-0.275-0.756-0.475z"></path>
</symbol>
</defs>
</svg>
